<svg xmlns="http://www.w3.org/2000/svg" viewBox="0 0 1470 975"><defs><style>.a,.e,.f{fill:#39b54a;}.b{fill:#fff;}.c{fill:#231f20;}.d{fill:#f1f2f2;}.e,.f{stroke:#009444;stroke-miterlimit:10;}.e{stroke-width:48px;}.f{stroke-width:40px;}</style></defs><title>Basic Turtle</title><path class="a" d="M245,722c68-45,144-99,144-99L499,784s-78,50-148,96c-100,67-204,85-234,42S146,789,245,722Z" transform="translate(-97 -14)"/><path class="a" d="M245,281c68,45,144,99,144,99L499,219s-78-50-148-96C252,56,147,37,118,81S146,214,245,281Z" transform="translate(-97 -14)"/><path class="a" d="M1106,779c-35-59-73-127-73-127L872,746s41,66,77,126c51,86,128,136,172,110S1158,865,1106,779Z" transform="translate(-97 -14)"/><path class="a" d="M1106,224c-35,59-73,127-73,127L872,257s41-66,77-126c51-86,128-136,172-110S1158,138,1106,224Z" transform="translate(-97 -14)"/><ellipse class="a" cx="1260" cy="483" rx="210" ry="178"/><path class="b" d="M1489,595c-9-23-46-30-82-17s-58,42-49,65,46,30,82,17S1499,618,1489,595Z" transform="translate(-97 -14)"/><path class="c" d="M1490,595c-6-15-27-21-47-13s-32,25-26,40,27,21,47,13S1496,610,1490,595Z" transform="translate(-97 -14)"/><path class="d" d="M1490,401c-9,22-45,29-82,15s-59-43-51-65,45-29,82-15S1499,378,1490,401Z" transform="translate(-97 -14)"/><path class="c" d="M1488,403c-6,15-27,20-47,12s-32-26-27-40,27-20,47-12S1494,388,1488,403Z" transform="translate(-97 -14)"/><path class="e" d="M1245,505c-4,351-258,360-577,360S123,644,121,506,350,145,668,145,1242,173,1245,505Z" transform="translate(-97 -14)"/><polygon class="f" points="626 768 455 634 456 360 629 220 801 354 799 628 626 768"/><line class="f" x1="456" y1="360" x2="164" y2="261"/><line class="f" x1="629" y1="220" x2="595" y2="134"/><line class="f" x1="455" y1="634" x2="228" y2="753"/><line class="f" x1="626" y1="768" x2="592" y2="857"/><line class="f" x1="801" y1="354" x2="1009" y2="210"/><line class="f" x1="799" y1="628" x2="1009" y2="765"/></svg>